<svg width="128.7" height="128.52" version="1.1" viewBox="0 0 34.052 34.004" xmlns="http://www.w3.org/2000/svg">
 <defs>
  <clipPath id="clipPath54">
   <path d="m56.204 358.99c0-4.143 6.492-7.5 14.5-7.5 0.167 0 0.334 1e-3 0.5 4e-3v14.991c-0.166 4e-3 -0.333 5e-3 -0.5 5e-3 -8.008 0-14.5-3.358-14.5-7.5"/>
  </clipPath>
  <clipPath id="clipPath64">
   <path d="m71.204 351.5c7.776 0.137 14 3.441 14 7.496 0 4.056-6.224 7.359-14 7.495z"/>
  </clipPath>
  <clipPath id="clipPath74">
   <path d="m56.704 369.99c0-3.776 6.232-7 14-7s14 3.224 14 7-6.232 7-14 7-14-3.224-14-7"/>
  </clipPath>
  <clipPath id="clipPath86">
   <path d="m56.204 369.99c0-4.142 6.492-7.5 14.5-7.5s14.5 3.358 14.5 7.5-6.492 7.5-14.5 7.5-14.5-3.358-14.5-7.5"/>
  </clipPath>
  <clipPath id="clipPath102">
   <path d="m95.204 380.99c0-4.142 6.491-7.5 14.5-7.5 0.167 0 0.334 2e-3 0.5 4e-3v14.992c-0.166 3e-3 -0.333 4e-3 -0.5 4e-3 -8.009 0-14.5-3.358-14.5-7.5"/>
  </clipPath>
  <clipPath id="clipPath112">
   <path d="m110.2 373.5c7.777 0.136 14 3.44 14 7.496 0 4.055-6.223 7.359-14 7.496z"/>
  </clipPath>
  <clipPath id="clipPath122">
   <path d="m95.204 391.99c0-4.142 6.491-7.5 14.5-7.5 8.008 0 14.5 3.358 14.5 7.5s-6.492 7.5-14.5 7.5c-8.009 0-14.5-3.358-14.5-7.5"/>
  </clipPath>
  <clipPath id="clipPath136">
   <path d="m134.2 357.99c0-4.143 6.492-7.5 14.5-7.5 0.168 0 0.334 1e-3 0.5 4e-3v14.991c-0.166 3e-3 -0.332 5e-3 -0.5 5e-3 -8.008 0-14.5-3.358-14.5-7.5"/>
  </clipPath>
  <clipPath id="clipPath146">
   <path d="m149.2 350.5c7.777 0.137 14 3.441 14 7.496 0 4.056-6.223 7.359-14 7.495z"/>
  </clipPath>
  <clipPath id="clipPath156">
   <path d="m134.2 368.99c0-4.142 6.492-7.5 14.5-7.5s14.5 3.358 14.5 7.5-6.492 7.5-14.5 7.5-14.5-3.358-14.5-7.5"/>
  </clipPath>
  <clipPath id="clipPath170">
   <path d="m95.204 335.99c0-4.142 6.491-7.5 14.5-7.5 0.167 0 0.334 2e-3 0.5 4e-3v14.992c-0.166 3e-3 -0.333 4e-3 -0.5 4e-3 -8.009 0-14.5-3.358-14.5-7.5"/>
  </clipPath>
  <clipPath id="clipPath180">
   <path d="m110.2 328.5c7.777 0.136 14 3.44 14 7.496 0 4.055-6.223 7.359-14 7.496z"/>
  </clipPath>
  <clipPath id="clipPath190">
   <path d="m95.204 346.99c0-4.142 6.491-7.5 14.5-7.5 8.008 0 14.5 3.358 14.5 7.5s-6.492 7.5-14.5 7.5c-8.009 0-14.5-3.358-14.5-7.5"/>
  </clipPath>
 </defs>
 <g transform="matrix(.17087 0 0 -.17087 .27319 22.37)">
  <path d="M 0,0 98.514,-57.369 V -37 L 0,20 Z" fill="#53bac0"/>
 </g>
 <g transform="matrix(.17087 0 0 -.17087 17.106 28.692)">
  <path d="m0 0v-20.375l98.15 57.375v20z" fill="#0b7981"/>
 </g>
 <g transform="matrix(.17087 0 0 -.17087 .27319 18.953)">
  <path d="M 0,0 98.514,-57.369 V -37 L 0,20 Z" fill="#e5e1d6"/>
 </g>
 <g transform="matrix(.17087 0 0 -.17087 17.106 25.275)">
  <path d="m0 0v-20.375l98.15 57.374v20z" fill="#a39a84"/>
 </g>
 <g transform="matrix(.17087 0 0 -.17087 .27319 12.118)">
  <path d="m0 0 98.514-57 98.148 57-98.148 57.001z" fill="#f04e30"/>
 </g>
 <g transform="matrix(.17087 0 0 -.17087 .27319 15.536)">
  <path d="M 0,0 98.514,-57.368 V -37 L 0,20 Z" fill="#c54127"/>
 </g>
 <g transform="matrix(.17087 0 0 -.17087 17.106 21.858)">
  <path d="m0 0v-20.375l98.15 57.374v20z" fill="#a93623"/>
 </g>
 <path d="m16.764 13.485h1.1959v-4.1006h-1.1959z" fill="#fff"/>
 <g transform="matrix(.17087 0 0 -.17087 11.431 5.6442)">
  <path d="m0 0 65.327-38.017 5.098 4.243-64.852 36.946z" fill="#fff"/>
 </g>
 <path d="m8.05 12.289h2.563v-2.0506h-2.563z" fill="#c54127"/>
 <path d="m10.442 12.289h2.5628v-2.0506h-2.5628z" fill="#b73b26"/>
 <g transform="matrix(.17087 0 0 -.17087 -1.5534 73.544)">
  <g clip-path="url(#clipPath54)">
   <path d="m51.204 371.49h25v-25h-25z" fill="#c54127"/>
  </g>
  <g clip-path="url(#clipPath64)">
   <path d="m66.204 371.49h24v-24.991h-24z" fill="#b73b26"/>
  </g>
  <g clip-path="url(#clipPath74)">
   <g transform="translate(70.704 362.49)">
    <path d="m0 0c8.008 0 14.5 3.358 14.5 7.5s-6.492 7.5-14.5 7.5-14.5-3.358-14.5-7.5 6.492-7.5 14.5-7.5" fill="#f04e30" fill-rule="evenodd"/>
   </g>
  </g>
  <g clip-path="url(#clipPath86)">
   <g transform="translate(70.704 362.49)">
    <path d="m0 0c8.008 0 14.5 3.358 14.5 7.5s-6.492 7.5-14.5 7.5-14.5-3.358-14.5-7.5 6.492-7.5 14.5-7.5z" fill="none" stroke="#b73b26" stroke-miterlimit="10" stroke-width="2"/>
   </g>
  </g>
 </g>
 <path d="m14.714 8.5302h2.563v-2.0504h-2.563z" fill="#d1d1d2"/>
 <path d="m17.106 8.5302h2.563v-2.0504h-2.563z" fill="#b7b7b8"/>
 <g transform="matrix(.17087 0 0 -.17087 -1.5534 73.544)">
  <g clip-path="url(#clipPath102)">
   <path d="m90.204 393.49h25v-25h-25z" fill="#d1d1d2"/>
  </g>
  <g clip-path="url(#clipPath112)">
   <path d="m105.2 393.49h24v-24.991h-24z" fill="#b7b7b8"/>
  </g>
  <g clip-path="url(#clipPath122)">
   <path d="m90.204 404.49h39v-25h-39z" fill="#fff"/>
  </g>
 </g>
 <path d="m21.378 12.46h2.5628v-2.0506h-2.5628z" fill="#d1d1d2"/>
 <path d="m23.77 12.46h2.563v-2.0506h-2.563z" fill="#b7b7b8"/>
 <g transform="matrix(.17087 0 0 -.17087 -1.5534 73.544)">
  <g clip-path="url(#clipPath136)">
   <path d="m129.2 370.49h25v-25h-25z" fill="#d1d1d2"/>
  </g>
  <g clip-path="url(#clipPath146)">
   <path d="m144.2 370.49h24v-24.991h-24z" fill="#b7b7b8"/>
  </g>
  <g clip-path="url(#clipPath156)">
   <path d="m129.2 381.49h39v-25h-39z" fill="#fff"/>
  </g>
 </g>
 <path d="m14.714 16.219h2.563v-2.0504h-2.563z" fill="#d1d1d2"/>
 <path d="m17.106 16.219h2.563v-2.0504h-2.563z" fill="#b7b7b8"/>
 <g transform="matrix(.17087 0 0 -.17087 -1.5534 73.544)">
  <g clip-path="url(#clipPath170)">
   <path d="m90.204 348.49h25v-25h-25z" fill="#d1d1d2"/>
  </g>
  <g clip-path="url(#clipPath180)">
   <path d="m105.2 348.49h24v-24.991h-24z" fill="#b7b7b8"/>
  </g>
  <g clip-path="url(#clipPath190)">
   <path d="m90.204 359.49h39v-25h-39z" fill="#fff"/>
  </g>
 </g>
 <g transform="matrix(.17087 0 0 -.17087 17.106 28.84)">
  <path d="m0 0-98.514 57.111v1.255l98.505-57.363z" fill="#8e847d"/>
 </g>
 <g transform="matrix(.17087 0 0 -.17087 17.106 25.423)">
  <path d="m0 0-98.514 57.111v1.255l98.505-57.363z" fill="#8e847d"/>
 </g>
 <g transform="matrix(.17087 0 0 -.17087 17.098 28.84)">
  <path d="m 0,0 98.197,56.931 v 1.251 L 0.009,1 Z" fill="#706861"/>
 </g>
 <g transform="matrix(.17087 0 0 -.17087 17.099 25.422)">
  <path d="m0 0 98.191 56.9v1.251l-98.182-57.152z" fill="#706861"/>
 </g>
</svg>
