<svg width="128mm" height="128mm" version="1.1" viewBox="0 0 128 128" xmlns="http://www.w3.org/2000/svg">
 <rect x=".021271" y="-.34208" width="128.95" height="128.95" ry="0" fill="#ff2518"/>
 <path d="m93.627 12.888c-33.627 32.736-54.445 51.529-57.572 54.841-3.1242 3.3076-4.293 7.2835-2.6099 8.8734 1.6869 1.5934 5.587 0.19733 8.7112-3.1103 3.1278-3.3095 22.552-26.446 51.471-60.604zm-57.773 61.45c-0.80943-0.7646 0.08275-3.0167 1.9836-5.0291 1.9043-2.0161 4.1012-3.0323 4.9096-2.2687 0.80474 0.76018-0.08566 3.0105-1.99 5.0265-1.9008 2.0124-4.0985 3.0314-4.9032 2.2713z" stroke="#fff" stroke-linejoin="round" stroke-width="12.827"/>
 <path d="m76.304 21.06 111.59-108.35-97.614 114.01z" fill="#fff"/>
 <g transform="matrix(.9325 .88081 -.88081 .9325 75.068 -4.8705)" stroke="#fff" stroke-linejoin="round" stroke-width="10">
  <path d="m28.409 83.23c-0.605 0-2.667-0.168-4.76-2.105-3.259-3.02-4.914-8.717-4.914-16.933 0-0.726 0.586-1.312 1.312-1.312s1.312 0.587 1.312 1.312c0 9.182 2.17 13.187 3.99 14.93 1.598 1.527 3.082 1.484 3.15 1.481 2.43-4e-3 4.385-0.84 6.059-2.559 6.132-6.294 5.795-21.761 5.79-21.916-0.019-0.725 0.554-1.328 1.277-1.348 0.739-0.017 1.327 0.554 1.347 1.277 0.021 0.678 0.372 16.724-6.531 23.815-2.162 2.224-4.809 3.351-7.862 3.351-0.021 5e-3 -0.079 7e-3 -0.17 7e-3z"/>
  <polygon points="40.018 40.39 40.018 50.48 78.706 41.387 78.706 40.39"/>
  <polygon points="40.018 83.746 40.018 88.141 48.933 88.141 78.706 81.142 78.706 74.652"/>
  <polygon points="40.018 69.857 78.706 60.764 78.706 54.273 40.018 63.366"/>
  <polygon points="40.018 54.179 40.018 60.671 78.706 51.577 78.706 45.085"/>
  <polygon points="78.706 70.954 78.706 64.462 40.018 73.556 40.018 80.048"/>
  <polygon points="60.41 88.141 78.706 88.141 78.706 83.839"/>
  <rect x="34.752" y="29.222" width="49.222" height="8.95"/>
  <rect x="34.752" y="89.947" width="49.222" height="8.948"/>
 </g>
 <path d="m93.485 13.049c-33.627 32.736-54.445 51.529-57.572 54.841-3.1242 3.3076-4.2931 7.2835-2.6099 8.8734 1.6869 1.5934 5.587 0.19732 8.7112-3.1103 3.1278-3.3095 22.552-26.446 51.471-60.604zm-57.773 61.45c-0.80942-0.76455 0.08275-3.0167 1.9836-5.0291 1.9043-2.016 4.1012-3.0323 4.9096-2.2687 0.80475 0.76018-0.08566 3.0105-1.99 5.0266-1.9008 2.0124-4.0985 3.0314-4.9032 2.2712z" stroke-width="1.2827"/>
 <g transform="matrix(.9325 .88081 -.88081 .9325 74.925 -4.7094)">
  <path d="m28.409 83.23c-0.605 0-2.667-0.168-4.76-2.105-3.259-3.02-4.914-8.717-4.914-16.933 0-0.726 0.586-1.312 1.312-1.312s1.312 0.587 1.312 1.312c0 9.182 2.17 13.187 3.99 14.93 1.598 1.527 3.082 1.484 3.15 1.481 2.43-4e-3 4.385-0.84 6.059-2.559 6.132-6.294 5.795-21.761 5.79-21.916-0.019-0.725 0.554-1.328 1.277-1.348 0.739-0.017 1.327 0.554 1.347 1.277 0.021 0.678 0.372 16.724-6.531 23.815-2.162 2.224-4.809 3.351-7.862 3.351-0.021 5e-3 -0.079 7e-3 -0.17 7e-3z"/>
  <polygon points="40.018 50.48 78.706 41.387 78.706 40.39 40.018 40.39"/>
  <polygon points="48.933 88.141 78.706 81.142 78.706 74.652 40.018 83.746 40.018 88.141"/>
  <polygon points="78.706 60.764 78.706 54.273 40.018 63.366 40.018 69.857"/>
  <polygon points="40.018 60.671 78.706 51.577 78.706 45.085 40.018 54.179"/>
  <polygon points="78.706 64.462 40.018 73.556 40.018 80.048 78.706 70.954"/>
  <polygon points="78.706 83.839 60.41 88.141 78.706 88.141"/>
  <rect x="34.752" y="29.222" width="49.222" height="8.95"/>
  <rect x="34.752" y="89.947" width="49.222" height="8.948"/>
 </g>
 <g fill="#fff">
  <rect transform="matrix(.66007 -.7512 .75202 .65914 0 0)" x="-29.794" y="95.548" width="26.846" height="2.4162"/>
  <rect transform="matrix(.67123 -.74125 .74209 .67031 0 0)" x="-31.447" y="155.67" width="26.846" height="2.4162"/>
  <rect x="26.188" y="101.6" width="8.7176" height="6.725"/>
 </g>
</svg>
